<svg width="1400" height="1000" viewBox="0 0 1400 1000" fill="none" xmlns="http://www.w3.org/2000/svg">
  <rect width="1400" height="1000" fill="#F7F1EA"/>
  <rect y="690" width="1400" height="310" fill="#DDD0C0"/>
  <rect x="125" y="118" width="1150" height="572" rx="28" fill="#EFE4D7"/>
  <rect x="774" y="172" width="386" height="338" rx="24" fill="#FCF8F3"/>
  <rect x="202" y="365" width="542" height="244" rx="28" fill="#E7D9C8"/>
  <rect x="230" y="298" width="484" height="102" rx="20" fill="#8D6B54"/>
  <rect x="237" y="402" width="470" height="168" rx="20" fill="#F8F2EC"/>
  <rect x="288" y="442" width="364" height="76" rx="18" fill="#FCFAF7"/>
  <rect x="279" y="499" width="392" height="52" rx="16" fill="#7B8F67"/>
  <rect x="772" y="566" width="170" height="82" rx="18" fill="#B55A37"/>
  <circle cx="858" cy="522" r="40" fill="#E3C39D"/>
  <rect x="966" y="565" width="146" height="86" rx="20" fill="#EFE4D7"/>
  <rect x="1148" y="255" width="40" height="330" rx="18" fill="#8D6B54"/>
  <path d="M86 834C265 799 426 798 623 819C834 841 1017 907 1196 883C1282 871 1347 850 1400 830V1000H86V834Z" fill="#E7DED3"/>
  <path d="M0 882C184 852 333 850 510 865C736 884 914 931 1144 916C1256 909 1333 892 1400 872V1000H0V882Z" fill="#D1C3B1"/>
</svg>
